<svg width="102" height="24" viewBox="0 0 102 24" fill="none" xmlns="http://www.w3.org/2000/svg">
<path d="M58.276 2.64916C58.1066 2.12879 57.8844 1.68726 57.4061 1.66755H57.3759H56.9767H56.2085C56.1746 1.66361 56.1369 1.65967 56.0992 1.65967H55.7151C55.6774 1.65967 55.6398 1.66361 55.6059 1.66755C55.2067 1.73063 55.0071 2.1485 54.8564 2.63733L48.9437 19.9317C48.9437 20.1603 49.1207 20.3456 49.3392 20.3456H50.5744C51.064 20.3456 51.3163 19.9238 51.4632 19.4153L52.642 15.8121C52.7249 15.5637 52.947 15.3982 53.1994 15.3982H59.7749C60.0235 15.3982 60.2457 15.5637 60.3285 15.8082L61.5563 19.4507C61.7069 19.9593 61.9705 20.3811 62.4827 20.3811H63.7745C64.0042 20.3811 64.1887 20.1958 64.1887 19.9672L58.276 2.64916ZM53.4517 13.3522L56.4344 4.25362L59.5038 13.3522H53.4517Z" fill="#76A62D"/>
<path d="M75.5622 1.71484C75.4041 1.65176 74.4889 1.65965 74.4889 1.65965C73.875 1.67542 73.4834 1.65965 73.2084 2.05781C73.167 2.11694 73.1369 2.18002 73.1068 2.24309L69.4424 10.5414L65.6688 2.24703C65.6386 2.18396 65.6085 2.12088 65.5671 2.06175C65.2922 1.66359 64.9005 1.67542 64.2866 1.66359C64.2866 1.66359 63.3715 1.65571 63.2133 1.71878C62.8367 1.86858 63.0852 2.35347 63.2622 2.75163L67.8908 12.4179C68.1017 12.8594 68.2109 13.3443 68.2109 13.837V19.6715C68.2109 20.0657 68.5159 20.385 68.8925 20.385H69.8604C70.237 20.385 70.5421 20.0657 70.5421 19.6715V13.8646C70.5421 13.3719 70.6513 12.887 70.8622 12.4455L75.5095 2.74769C75.6903 2.34953 75.9389 1.86464 75.5622 1.71484Z" fill="#76A62D"/>
<path d="M93.2552 10.7425L82.1453 1.00133C82.0624 0.930372 81.9419 0.934314 81.8666 1.0171L80.2246 2.80685L89.2971 10.7425L80.2246 18.6781L81.8666 20.4678C81.9419 20.5506 82.0624 20.5545 82.1453 20.4836L93.2552 10.7425Z" fill="#76A62D"/>
<path d="M101.239 10.8213L90.1294 1.08019C90.0466 1.00923 89.9261 1.01317 89.8507 1.09596L88.2087 2.88571L97.2812 10.8213L88.2087 18.7569L89.8507 20.5467C89.9261 20.6295 90.0466 20.6334 90.1294 20.5624L101.239 10.8213Z" fill="#76A62D"/>
<path d="M14.3638 1.64783H12.9628C12.669 1.64783 12.4355 1.89618 12.4355 2.19973V19.7621C12.4355 20.0815 12.6841 20.3456 12.9929 20.3456H14.3412C14.6462 20.3456 14.8986 20.0854 14.8986 19.7621V2.20367C14.8948 1.89618 14.6575 1.64783 14.3638 1.64783Z" fill="#76A62D"/>
<path d="M9.35115 18.1183H3.09572V2.20373C3.09572 1.89624 2.85846 1.65182 2.56847 1.65182H1.29178C0.998022 1.65182 0.764526 1.90018 0.764526 2.20373V18.1223V19.5769C0.764526 19.9396 1.04322 20.2313 1.38969 20.2313H3.09949H9.35492C9.6562 20.2313 9.89723 19.979 9.89723 19.6636V18.686C9.89346 18.3746 9.64867 18.1183 9.35115 18.1183Z" fill="#76A62D"/>
<path d="M47.1097 2.68071C46.3301 2.1288 45.253 1.73853 43.193 1.73853H39.9429H39.2047C38.7302 1.73853 38.3423 2.14063 38.3423 2.64129V19.4192C38.3423 19.9317 38.7377 20.3496 39.2311 20.3496H39.9165C40.4061 20.3496 40.8053 19.9356 40.8053 19.4192V13.1157C41.5434 13.1157 44.0968 13.1157 44.3981 13.1157C44.7484 13.1157 49.2451 12.3785 49.2451 7.25364C49.2413 5.02236 48.1491 3.42184 47.1097 2.68071ZM43.5809 11.184C43.3474 11.184 41.0764 11.184 41.0764 11.184H40.8015V3.67019H42.7825C44.142 3.67019 44.8538 3.92644 45.3698 4.29306C46.059 4.78189 46.7783 5.83839 46.7783 7.31277C46.782 10.6991 43.8144 11.184 43.5809 11.184Z" fill="#76A62D"/>
<path d="M36.0639 20.7635C35.9659 20.6886 35.8567 20.6334 35.74 20.5861C34.8135 20.2155 33.4615 19.2339 32.7083 18.7254C32.1246 18.3311 32.2149 18.0197 32.294 17.8896C32.3091 17.8699 32.3279 17.8463 32.343 17.8265C32.3468 17.8226 32.3468 17.8226 32.3468 17.8226C33.6272 16.1787 34.3691 13.8371 34.3691 10.8804C34.3691 5.6531 32.2338 1.41525 26.4378 1.41525C21.1051 1.41525 18.5441 5.6531 18.5441 10.8804C18.5441 16.1078 20.2652 20.5821 26.4378 20.5821C27.6919 20.5821 28.8443 20.3298 29.8574 19.841H29.8612C30.1587 19.707 30.4487 19.7109 30.8479 20.0145C33.7101 22.2339 35.1299 23.0499 36.1467 23.0499C36.6363 23.0499 36.5497 21.4731 36.5497 21.4731C36.5497 21.4731 36.4781 21.0749 36.0639 20.7635ZM21.0749 10.9198C21.0749 10.908 21.0749 10.8962 21.0749 10.8804C21.0825 7.33246 22.3177 3.56768 26.4453 3.56768C31.1228 3.56768 31.8383 7.33246 31.8421 10.8804C31.8421 10.8923 31.8421 10.9041 31.8421 10.9198C31.8421 15.1419 30.5353 18.3509 26.4453 18.3509C21.749 18.3509 21.0749 14.4796 21.0749 10.9198Z" fill="#76A62D"/>
</svg>
