<svg width="47" height="36" viewBox="0 0 47 36" fill="none" xmlns="http://www.w3.org/2000/svg">
<path d="M9.31749 35.6961V33.3293C9.31749 32.422 8.76523 31.8302 7.81848 31.8302C7.34511 31.8302 6.83229 31.988 6.47726 32.5009C6.20112 32.0669 5.80664 31.8302 5.21492 31.8302C4.82044 31.8302 4.42597 31.9486 4.11039 32.3825V31.9091H3.28198V35.6961H4.11039V33.6054C4.11039 32.9348 4.46541 32.6192 5.01768 32.6192C5.56995 32.6192 5.84609 32.9742 5.84609 33.6054V35.6961H6.6745V33.6054C6.6745 32.9348 7.06897 32.6192 7.58179 32.6192C8.13406 32.6192 8.4102 32.9742 8.4102 33.6054V35.6961H9.31749ZM21.5858 31.9091H20.2445V30.7652H19.4161V31.9091H18.6666V32.6586H19.4161V34.3943C19.4161 35.2622 19.7712 35.775 20.7179 35.775C21.0729 35.775 21.4674 35.6567 21.7435 35.4989L21.5069 34.7888C21.2702 34.9466 20.994 34.9861 20.7968 34.9861C20.4023 34.9861 20.2445 34.7494 20.2445 34.3549V32.6586H21.5858V31.9091ZM28.6075 31.8302C28.1341 31.8302 27.8185 32.0669 27.6213 32.3825V31.9091H26.7929V35.6961H27.6213V33.5659C27.6213 32.9348 27.8974 32.5798 28.4102 32.5798C28.568 32.5798 28.7653 32.6192 28.923 32.6586L29.1597 31.8697C29.0019 31.8302 28.7653 31.8302 28.6075 31.8302ZM17.996 32.2247C17.6015 31.9486 17.0493 31.8302 16.4575 31.8302C15.5108 31.8302 14.8796 32.3036 14.8796 33.0531C14.8796 33.6843 15.353 34.0393 16.1814 34.1577L16.5759 34.1971C17.0098 34.276 17.2465 34.3943 17.2465 34.5916C17.2465 34.8677 16.9309 35.065 16.3786 35.065C15.8264 35.065 15.3925 34.8677 15.1163 34.6705L14.7218 35.3017C15.1558 35.6172 15.7475 35.775 16.3392 35.775C17.4437 35.775 18.0749 35.2622 18.0749 34.5521C18.0749 33.8815 17.5621 33.5265 16.7731 33.4081L16.3786 33.3687C16.0236 33.3293 15.7475 33.2504 15.7475 33.0137C15.7475 32.7375 16.0236 32.5798 16.4575 32.5798C16.9309 32.5798 17.4043 32.777 17.641 32.8953L17.996 32.2247ZM40.0079 31.8302C39.5345 31.8302 39.2189 32.0669 39.0217 32.3825V31.9091H38.1933V35.6961H39.0217V33.5659C39.0217 32.9348 39.2978 32.5798 39.8106 32.5798C39.9684 32.5798 40.1657 32.6192 40.3235 32.6586L40.5602 31.8697C40.4024 31.8302 40.1657 31.8302 40.0079 31.8302ZM29.4359 33.8026C29.4359 34.9466 30.2248 35.775 31.4477 35.775C32 35.775 32.3945 35.6567 32.7889 35.3411L32.3945 34.6705C32.0789 34.9072 31.7633 35.0255 31.4083 35.0255C30.7376 35.0255 30.2643 34.5521 30.2643 33.8026C30.2643 33.0926 30.7376 32.6192 31.4083 32.5798C31.7633 32.5798 32.0789 32.6981 32.3945 32.9348L32.7889 32.2642C32.3945 31.9486 32 31.8302 31.4477 31.8302C30.2248 31.8302 29.4359 32.6586 29.4359 33.8026ZM37.0887 33.8026V31.9091H36.2603V32.3825C35.9842 32.0275 35.5897 31.8302 35.0769 31.8302C34.0118 31.8302 33.1834 32.6586 33.1834 33.8026C33.1834 34.9466 34.0118 35.775 35.0769 35.775C35.6292 35.775 36.0237 35.5778 36.2603 35.2228V35.6961H37.0887V33.8026ZM34.0513 33.8026C34.0513 33.132 34.4852 32.5798 35.1952 32.5798C35.8659 32.5798 36.3392 33.0926 36.3392 33.8026C36.3392 34.4732 35.8659 35.0255 35.1952 35.0255C34.4852 34.9861 34.0513 34.4732 34.0513 33.8026ZM24.1499 31.8302C23.0453 31.8302 22.2564 32.6192 22.2564 33.8026C22.2564 34.9861 23.0453 35.775 24.1893 35.775C24.7416 35.775 25.2938 35.6172 25.7278 35.2622L25.3333 34.6705C25.0177 34.9072 24.6232 35.065 24.2288 35.065C23.7159 35.065 23.2031 34.8283 23.0848 34.1577H25.8856C25.8856 34.0393 25.8856 33.9604 25.8856 33.8421C25.925 32.6192 25.215 31.8302 24.1499 31.8302ZM24.1499 32.5403C24.6627 32.5403 25.0177 32.8559 25.0966 33.4476H23.1242C23.2031 32.9348 23.5581 32.5403 24.1499 32.5403ZM44.7022 33.8026V30.4101H43.8738V32.3825C43.5976 32.0275 43.2032 31.8302 42.6903 31.8302C41.6252 31.8302 40.7968 32.6586 40.7968 33.8026C40.7968 34.9466 41.6252 35.775 42.6903 35.775C43.2426 35.775 43.6371 35.5778 43.8738 35.2228V35.6961H44.7022V33.8026ZM41.6647 33.8026C41.6647 33.132 42.0986 32.5798 42.8087 32.5798C43.4793 32.5798 43.9527 33.0926 43.9527 33.8026C43.9527 34.4732 43.4793 35.0255 42.8087 35.0255C42.0986 34.9861 41.6647 34.4732 41.6647 33.8026ZM13.9723 33.8026V31.9091H13.1439V32.3825C12.8678 32.0275 12.4733 31.8302 11.9605 31.8302C10.8954 31.8302 10.067 32.6586 10.067 33.8026C10.067 34.9466 10.8954 35.775 11.9605 35.775C12.5128 35.775 12.9072 35.5778 13.1439 35.2228V35.6961H13.9723V33.8026ZM10.8954 33.8026C10.8954 33.132 11.3293 32.5798 12.0394 32.5798C12.71 32.5798 13.1834 33.0926 13.1834 33.8026C13.1834 34.4732 12.71 35.0255 12.0394 35.0255C11.3293 34.9861 10.8954 34.4732 10.8954 33.8026Z" fill="white"/>
<path d="M30.146 3.15189H17.7199V25.4793H30.146V3.15189Z" fill="#FF5F00"/>
<path d="M18.5089 14.3156C18.5089 9.77909 20.639 5.75542 23.9132 3.15187C21.5069 1.25837 18.4694 0.11438 15.1558 0.11438C7.30569 0.11438 0.95459 6.46548 0.95459 14.3156C0.95459 22.1657 7.30569 28.5168 15.1558 28.5168C18.4694 28.5168 21.5069 27.3728 23.9132 25.4793C20.639 22.9152 18.5089 18.8521 18.5089 14.3156Z" fill="#EB001B"/>
<path d="M46.9113 14.3156C46.9113 22.1657 40.5602 28.5168 32.7101 28.5168C29.3964 28.5168 26.359 27.3728 23.9526 25.4793C27.2663 22.8758 29.357 18.8521 29.357 14.3156C29.357 9.77909 27.2268 5.75542 23.9526 3.15187C26.359 1.25837 29.3964 0.11438 32.7101 0.11438C40.5602 0.11438 46.9113 6.50492 46.9113 14.3156Z" fill="#F79E1B"/>
</svg>
