<svg width="71" height="24" viewBox="0 0 71 24" fill="none" xmlns="http://www.w3.org/2000/svg">
<g clip-path="url(#clip0)">
<path d="M30.7666 23.6537H25.0151L28.6125 0.421112H34.3637L30.7666 23.6537Z" fill="#00579F"/>
<path d="M51.6163 0.989106C50.4819 0.519026 48.6826 0 46.4577 0C40.7779 0 36.7782 3.16343 36.7537 7.68618C36.7065 11.0231 39.6173 12.8764 41.7944 13.9891C44.0196 15.126 44.776 15.8681 44.776 16.8815C44.7533 18.4379 42.9779 19.1553 41.322 19.1553C39.0257 19.1553 37.7954 18.7854 35.9256 17.9195L35.1682 17.5483L34.3634 22.7635C35.7124 23.4054 38.1976 23.975 40.7779 24C46.8128 24 50.7417 20.8855 50.7882 16.0658C50.8112 13.4211 49.2742 11.3946 45.9604 9.73863C43.9488 8.67561 42.7169 7.95883 42.7169 6.87118C42.7405 5.8824 43.7589 4.86964 46.0296 4.86964C47.8994 4.82004 49.2732 5.28946 50.3139 5.75921L50.8341 6.00591L51.6163 0.989106Z" fill="#00579F"/>
<path d="M59.2605 15.4233C59.7341 14.0886 61.5567 8.92295 61.5567 8.92295C61.5328 8.97255 62.0295 7.56363 62.3135 6.69869L62.7154 8.70056C62.7154 8.70056 63.8046 14.2617 64.0411 15.4233C63.1422 15.4233 60.3965 15.4233 59.2605 15.4233ZM66.36 0.421112H61.9112C60.5393 0.421112 59.497 0.840931 58.9051 2.34873L50.362 23.6534H56.3969C56.3969 23.6534 57.3904 20.786 57.604 20.1684C58.266 20.1684 64.1367 20.1684 64.9884 20.1684C65.1535 20.9841 65.6746 23.6534 65.6746 23.6534H71L66.36 0.421112Z" fill="#00579F"/>
<path d="M20.2112 0.421112L14.5786 16.2635L13.9631 13.0505C12.9218 9.3431 9.65587 5.31506 6.01129 3.31222L11.1706 23.6291H17.2526L26.293 0.421112H20.2112Z" fill="#00579F"/>
<path d="M9.34827 0.421112H0.094668L0 0.890534C7.21839 2.81848 11.999 7.46573 13.9631 13.0515L11.9515 2.37403C11.6203 0.890206 10.6025 0.470058 9.34827 0.421112Z" fill="#FAA61A"/>
</g>
<defs>
<clipPath id="clip0">
<rect width="71" height="24" fill="white"/>
</clipPath>
</defs>
</svg>
