<svg width="26" height="26" viewBox="0 0 26 26" fill="none" xmlns="http://www.w3.org/2000/svg">
<g clip-path="url(#clip0)">
<path fill-rule="evenodd" clip-rule="evenodd" d="M25.22 0.661011H0.219971V25.661H25.22V0.661011ZM8.972 4.12504C9.94164 4.08091 10.2515 4.07011 12.7203 4.07011H12.7175C15.1871 4.07011 15.4959 4.08091 16.4655 4.12504C17.4333 4.16935 18.0942 4.32257 18.6738 4.54738C19.2722 4.77939 19.7779 5.08999 20.2836 5.59568C20.7892 6.10096 21.0998 6.6082 21.3328 7.20611C21.5563 7.78414 21.7097 8.44471 21.7551 9.41252C21.7987 10.3822 21.81 10.6921 21.81 13.161C21.81 15.63 21.7987 15.939 21.7551 16.9088C21.7097 17.8762 21.5563 18.5369 21.3328 19.1152C21.0998 19.7129 20.7892 20.2201 20.2836 20.7254C19.7785 21.2311 19.2721 21.5425 18.6743 21.7747C18.096 21.9994 17.4346 22.1527 16.4668 22.197C15.4972 22.2411 15.1883 22.2519 12.7192 22.2519C10.2505 22.2519 9.94091 22.2411 8.97122 22.197C8.00362 22.1527 7.34289 21.9994 6.76445 21.7747C6.16695 21.5425 5.65976 21.2311 5.15467 20.7254C4.64919 20.2201 4.3386 19.7129 4.10622 19.115C3.8816 18.5369 3.72839 17.8764 3.68388 16.9086C3.63994 15.9389 3.62896 15.63 3.62896 13.161C3.62896 10.6921 3.64032 10.3821 3.68369 9.41236C3.72725 8.44492 3.88066 7.78414 4.10603 7.20591C4.33898 6.6082 4.64957 6.10096 5.15524 5.59568C5.66054 5.09019 6.16773 4.77958 6.7656 4.54738C7.34362 4.32257 8.00419 4.16935 8.972 4.12504ZM12.4174 5.70828C12.2335 5.7082 12.0632 5.70812 11.9049 5.70837V5.70609C10.2106 5.70799 9.8856 5.71935 9.047 5.75723C8.16065 5.79795 7.6794 5.9457 7.35898 6.0707C6.93471 6.23585 6.63169 6.43278 6.31351 6.75096C5.99539 7.06919 5.79804 7.37221 5.63325 7.79643C5.50882 8.1169 5.36073 8.59794 5.32019 9.48429C5.27664 10.4426 5.26792 10.729 5.26792 13.1567C5.26792 15.5843 5.27664 15.8722 5.32019 16.8305C5.36053 17.7169 5.50882 18.1979 5.63325 18.518C5.79841 18.9425 5.99539 19.2447 6.31351 19.5629C6.63169 19.8811 6.93471 20.078 7.35898 20.2428C7.67961 20.3673 8.16065 20.5154 9.047 20.5563C10.0053 20.5999 10.2929 20.6093 12.7203 20.6093C15.1475 20.6093 15.4354 20.5999 16.3937 20.5563C17.2801 20.5157 17.7615 20.368 18.0815 20.243C18.506 20.0782 18.808 19.8813 19.1262 19.5631C19.4444 19.2451 19.6417 18.943 19.8065 18.5188C19.9309 18.1987 20.079 17.7176 20.1196 16.8313C20.1631 15.8729 20.1726 15.5851 20.1726 13.1589C20.1726 10.7328 20.1631 10.4449 20.1196 9.48658C20.0792 8.60023 19.9309 8.11919 19.8065 7.79908C19.6414 7.37486 19.4444 7.07179 19.1262 6.75361C18.8083 6.43544 18.5058 6.23846 18.0815 6.07372C17.7611 5.94929 17.2801 5.80117 16.3937 5.76064C15.4352 5.71708 15.1475 5.70837 12.7203 5.70837C12.6154 5.70837 12.5145 5.70832 12.4174 5.70828ZM16.482 8.30835C16.482 7.70591 16.9706 7.21783 17.5728 7.21783V7.21747C18.1751 7.21747 18.6637 7.70611 18.6637 8.30835C18.6637 8.91065 18.1751 9.39929 17.5728 9.39929C16.9706 9.39929 16.482 8.91065 16.482 8.30835ZM8.05195 13.161C8.05195 10.5829 10.1421 8.49257 12.7202 8.49247C15.2983 8.49247 17.388 10.5828 17.388 13.161C17.388 15.7392 15.2985 17.8286 12.7203 17.8286C10.1422 17.8286 8.05195 15.7392 8.05195 13.161ZM15.7505 13.161C15.7505 11.4874 14.3938 10.1307 12.7203 10.1307C11.0467 10.1307 9.69013 11.4874 9.69013 13.161C9.69013 14.8345 11.0467 16.1913 12.7203 16.1913C14.3938 16.1913 15.7505 14.8345 15.7505 13.161Z" fill="white"/>
</g>
<defs>
<clipPath id="clip0">
<rect width="25" height="25" fill="white" transform="translate(0.219971 0.661011)"/>
</clipPath>
</defs>
</svg>
