<svg width="26" height="26" viewBox="0 0 26 26" fill="none" xmlns="http://www.w3.org/2000/svg">
<g clip-path="url(#clip0)">
<path fill-rule="evenodd" clip-rule="evenodd" d="M25.22 0.661011H0.219971V25.661H25.22V0.661011ZM4.25783 12.3131L19.309 6.50787C19.9964 6.19587 20.6599 6.67309 20.3975 7.72517L17.8344 19.8035C17.6555 20.6619 17.1367 20.8672 16.4182 20.4708L12.5135 17.5859L12.439 17.6584C11.5523 18.5205 10.7713 19.2798 10.6367 19.4115C10.6319 19.4162 10.6271 19.4209 10.6223 19.4256C10.4114 19.6318 10.2373 19.8021 9.85534 19.8021C9.45888 19.8021 9.4258 19.6848 9.34614 19.4023C9.32411 19.3241 9.29852 19.2334 9.26069 19.129L7.8244 14.7254L4.07059 13.5537C3.23666 13.2983 3.23057 12.7253 4.25783 12.3131ZM16.8746 9.11804L8.41351 14.4562L9.8393 18.8273L10.1214 15.8186L17.3663 9.28186C17.6843 8.9996 17.297 8.86188 16.8746 9.11804Z" fill="white"/>
</g>
<defs>
<clipPath id="clip0">
<rect width="25" height="25" fill="white" transform="translate(0.219971 0.661011)"/>
</clipPath>
</defs>
</svg>
