<svg width="26" height="26" viewBox="0 0 26 26" fill="none" xmlns="http://www.w3.org/2000/svg">
<path fill-rule="evenodd" clip-rule="evenodd" d="M25.22 0.661011H0.219971V25.661H25.22V0.661011ZM19.2957 6.69193C17.7208 5.11596 15.6588 4.20344 13.4459 4.09468L13.0014 4.08368C8.09707 4.08368 4.10549 8.07306 4.10352 12.9765C4.10288 14.544 4.51261 16.0739 5.29127 17.4226L4.02891 22.0311L8.74581 20.7944C10.0454 21.503 11.5087 21.8764 12.9979 21.8769H13.0016C17.9054 21.8769 21.8974 17.8871 21.8994 12.9836C21.9003 10.6073 20.9756 8.37289 19.2957 6.69193ZM9.23443 19.3446L8.96433 19.1844L6.16529 19.9183L6.9124 17.1906L6.73656 16.9109C5.99626 15.734 5.60528 14.3738 5.60584 12.977C5.60746 8.90148 8.92512 5.58577 13.0045 5.58577C14.9798 5.58641 16.8367 6.35634 18.233 7.7536C19.6293 9.15078 20.3978 11.008 20.397 12.9831C20.3954 17.0589 17.0778 20.375 13.0015 20.375H12.9985C11.6715 20.3744 10.3699 20.0181 9.23443 19.3446ZM17.1797 14.8983C17.3348 14.9732 17.4395 15.0237 17.4842 15.0984C17.5398 15.1911 17.5398 15.636 17.3545 16.1551C17.1693 16.6741 16.2811 17.1479 15.8539 17.2117C15.4708 17.269 14.9862 17.2928 14.4536 17.1237C14.1307 17.0212 13.7165 16.8846 13.1861 16.6556C11.1019 15.756 9.69338 13.737 9.42712 13.3553C9.40847 13.3286 9.39542 13.3099 9.38814 13.3002L9.38619 13.2976C9.26802 13.1399 8.4803 12.0891 8.4803 11.0014C8.4803 9.97771 8.98347 9.44115 9.215 9.19426C9.23083 9.17738 9.24539 9.16185 9.25844 9.14761C9.46223 8.92509 9.70309 8.86952 9.85133 8.86952C9.99952 8.86952 10.1479 8.87093 10.2774 8.87735C10.2934 8.87815 10.31 8.87805 10.3272 8.87795C10.4567 8.8772 10.6183 8.87626 10.7777 9.2588C10.8389 9.40594 10.9285 9.62404 11.0231 9.85409C11.2144 10.3197 11.4259 10.8344 11.4631 10.9088C11.5187 11.0201 11.5558 11.1498 11.4817 11.2981C11.4705 11.3204 11.4602 11.3415 11.4504 11.3616C11.3947 11.4751 11.3538 11.5586 11.2593 11.6688C11.2223 11.7121 11.184 11.7587 11.1457 11.8053C11.0691 11.8985 10.9925 11.9918 10.9258 12.0582C10.8145 12.1689 10.6987 12.2892 10.8283 12.5117C10.958 12.7341 11.4042 13.4618 12.0652 14.0511C12.7757 14.6845 13.3933 14.9523 13.7063 15.0879C13.7673 15.1144 13.8168 15.1359 13.8531 15.154C14.0754 15.2652 14.2051 15.2467 14.3347 15.0984C14.4645 14.9501 14.8905 14.4495 15.0387 14.2271C15.1869 14.0047 15.3352 14.0417 15.5389 14.1158C15.7427 14.19 16.8358 14.7276 17.0581 14.8388C17.1015 14.8605 17.1421 14.8801 17.1797 14.8983Z" fill="white"/>
</svg>
