<svg width="26" height="26" viewBox="0 0 26 26" fill="none" xmlns="http://www.w3.org/2000/svg">
<g clip-path="url(#clip0)">
<path fill-rule="evenodd" clip-rule="evenodd" d="M25.22 0.661011H0.219971V25.661H25.22V0.661011ZM21.7088 8.44434C21.4925 7.64122 20.8593 7.00799 20.0562 6.79174C18.5889 6.39018 12.7199 6.39018 12.7199 6.39018C12.7199 6.39018 6.85091 6.39018 5.38368 6.77627C4.596 6.99252 3.94731 7.64122 3.73109 8.44434C3.34497 9.91158 3.34497 12.9542 3.34497 12.9542C3.34497 12.9542 3.34497 16.0123 3.73109 17.4641C3.94731 18.2672 4.58055 18.9004 5.38368 19.1166C6.86638 19.5182 12.7199 19.5182 12.7199 19.5182C12.7199 19.5182 18.5889 19.5182 20.0562 19.1321C20.8593 18.9159 21.4925 18.2826 21.7088 17.4795C22.0949 16.0123 22.0949 12.9697 22.0949 12.9697C22.0949 12.9697 22.1103 9.91158 21.7088 8.44434ZM10.8511 15.6579L15.7316 12.8469L10.8511 10.036V15.6579Z" fill="white"/>
</g>
<defs>
<clipPath id="clip0">
<rect width="25" height="25" fill="white" transform="translate(0.219971 0.661011)"/>
</clipPath>
</defs>
</svg>
