<svg width="165" height="55" viewBox="0 0 165 55" fill="none" xmlns="http://www.w3.org/2000/svg">
<path d="M54.0827 21.8728C51.7717 9.88518 41.3942 1.61941 29.2175 1.09087C23.3597 0.759976 17.5581 2.38947 12.7221 5.72393C7.88603 9.0584 4.28897 13.9093 2.49473 19.5163C1.03207 24.031 1.18565 24.4714 5.90273 25.7927C11.5047 27.3637 17.1067 27.6573 23.4546 25.1981C17.7795 23.9135 13.4062 22.1077 10.4443 17.8059C21.1436 11.9333 31.0532 13.328 39.4123 21.7406C40.246 22.5775 41.087 23.4143 41.9427 24.2292C42.5204 24.5595 51.9619 30.4175 52.5469 30.8359C53.132 31.2543 53.6659 32.7592 51.9985 33.5006C50.331 34.242 37.796 34.3889 37.796 34.3889C35.1726 34.9158 32.6543 35.8758 30.3438 37.2298C24.0105 41.0543 22.1821 48.0868 26.3507 52.9538C26.7706 53.4307 27.2843 53.8152 27.8595 54.0831C28.4347 54.3509 29.059 54.4963 29.6929 54.5101C46.9303 52.829 57.2494 38.2795 54.0827 21.8728Z" fill="white"/>
<path d="M52.0277 33.5594C53.6951 32.8253 53.1685 31.3571 52.5762 30.8946C51.9838 30.4322 42.2571 24.3686 41.9499 24.2145C41.6428 24.0603 40.363 24.7063 39.8437 25.0954C39.3245 25.4845 38.5346 26.1671 38.5346 26.7838C38.5346 27.4004 40.0339 28.2519 40.3191 28.7511C40.4994 29.0011 40.5916 29.3043 40.581 29.6127C40.5704 29.9212 40.4577 30.2173 40.2606 30.4542C39.7779 30.9093 37.4011 31.8489 37.1305 32.5096C36.8599 33.1703 37.8253 34.4182 37.8253 34.4182C37.8253 34.4182 50.448 34.2347 52.0277 33.5594Z" fill="#FD9103"/>
<path d="M16.0975 33.7943C12.141 35.6515 8.54285 38.7934 4.52053 36.8481C2.58251 35.9085 1.96088 32.238 0.366577 29.0521L16.0975 33.7943Z" fill="white"/>
<path d="M30.1024 26.174C30.2978 25.3164 29.5944 24.4233 28.5313 24.1793C27.4682 23.9353 26.448 24.4328 26.2526 25.2904C26.0572 26.148 26.7607 27.0411 27.8238 27.2851C28.8869 27.5291 29.9071 27.0316 30.1024 26.174Z" fill="white"/>
<path d="M80.395 25.9343C80.2999 24.5102 80.1902 22.7997 80.2121 21.5298H80.1536C79.7368 22.7263 79.2248 23.9963 78.6032 25.4057L76.4092 30.3535H75.2098L73.2133 25.4938C72.6707 24.1978 72.1947 22.8747 71.7872 21.5298H71.7506C71.7506 22.7997 71.619 24.5101 71.5093 26.037L71.1802 30.4415H69.6883L70.5439 20.2378H72.577L74.6833 25.1782C75.1575 26.3006 75.5725 27.4474 75.9265 28.6137H75.985C76.3575 27.446 76.792 26.2992 77.2868 25.1782L79.4808 20.2378H81.5139L82.2452 30.4415H80.7021L80.395 25.9343Z" fill="#FCFCFC"/>
<path d="M83.0496 31.1463H80.0219L79.6636 26.0077L80.3949 25.9637L79.6636 26.0004C79.6636 25.6774 79.6197 25.3323 79.5978 24.9726C79.4954 25.2222 79.3857 25.4718 79.2686 25.7067L76.8991 31.0949H74.7052L72.5112 25.7801L72.2771 25.2002L72.2113 26.0958L71.8822 31.1463H68.8691L69.8491 19.4744H73.0377L75.3341 24.8552C75.5681 25.4278 75.7729 25.9416 75.9484 26.4188C76.1312 25.949 76.3433 25.4278 76.592 24.8552L78.9834 19.4744H82.172L83.0496 31.1463ZM81.3895 29.6781H81.47L80.9653 22.9099C80.9653 23.8862 81.0677 24.958 81.1262 25.8462L80.3949 25.9049L81.1262 25.8535L81.3895 29.6781ZM70.4196 29.6781H70.4708L70.7487 26.0077L70.7925 25.2736L70.4196 29.6781ZM75.6632 29.6194H75.9045L76.0362 29.3184H75.5389L75.6632 29.6194ZM73.8056 25.0901C73.8056 25.1341 73.8056 25.1709 73.8568 25.2149L74.2225 26.1031C74.1347 25.8829 74.047 25.6553 73.9519 25.4278L73.8056 25.0901Z" fill="white"/>
<path d="M96.6012 25.2075C96.6012 28.7164 94.0196 30.581 90.8676 30.581C87.7155 30.581 85.3241 28.4888 85.3241 25.4057C85.3241 22.161 87.7594 20.0469 91.0504 20.0469C94.3414 20.0469 96.6012 22.1757 96.6012 25.2075ZM87.0208 25.3763C86.9895 25.912 87.0687 26.4484 87.2535 26.9519C87.4384 27.4555 87.7248 27.9153 88.0948 28.3025C88.4648 28.6898 88.9105 28.9962 89.404 29.2026C89.8975 29.409 90.4281 29.5109 90.9627 29.5019C93.4857 29.5019 94.9192 27.5786 94.9192 25.2662C94.9192 23.2401 93.632 21.1186 90.9773 21.1186C88.3226 21.1186 87.0208 23.13 87.0208 25.3763Z" fill="#FCFCFC"/>
<path d="M90.8968 31.3151C87.2402 31.3151 84.6147 28.8853 84.6147 25.4057C84.6147 21.8161 87.2767 19.3129 91.0796 19.3129C94.8826 19.3129 97.3618 21.7353 97.3618 25.1855C97.3325 28.8559 94.7363 31.3151 90.8968 31.3151ZM91.0065 21.8528C88.6297 21.8528 87.7813 23.7467 87.7813 25.3764C87.7531 25.8148 87.8154 26.2544 87.9645 26.6675C88.1137 27.0806 88.3463 27.4583 88.6478 27.7768C88.9493 28.0953 89.3132 28.3478 89.7166 28.5183C90.12 28.6889 90.5542 28.7738 90.9919 28.7678C93.1859 28.7678 94.217 27.0134 94.217 25.2663C94.2476 24.8238 94.186 24.3798 94.0362 23.9625C93.8863 23.5452 93.6515 23.1639 93.3467 22.8427C93.0419 22.5216 92.6738 22.2677 92.2659 22.0973C91.8579 21.9268 91.419 21.8436 90.9773 21.8528H91.0065ZM87.189 22.3299C86.4497 23.18 86.0556 24.2778 86.0847 25.4057C86.0661 26.0157 86.1787 26.6226 86.4147 27.185C86.6507 27.7474 87.0045 28.2522 87.4522 28.6651C86.6928 27.7309 86.2815 26.5601 86.2894 25.3544C86.2713 24.2815 86.5745 23.2279 87.1597 22.3299H87.189ZM94.4438 21.8601C95.2543 22.8071 95.6936 24.0179 95.6797 25.2663C95.703 26.3568 95.3915 27.428 94.7875 28.3347C95.5503 27.4778 95.9492 26.3556 95.8991 25.2075C95.9208 24.5731 95.7985 23.942 95.5412 23.3621C95.284 22.7821 94.8987 22.2685 94.4145 21.8601H94.4438Z" fill="white"/>
<path d="M101.603 20.2085V26.25C101.603 28.533 102.825 29.502 104.478 29.502C106.306 29.502 107.476 28.5037 107.476 26.25V20.2085H109.092V26.1619C109.092 29.2891 107.096 30.5664 104.419 30.5664C101.896 30.5664 99.9872 29.3699 99.9872 26.206V20.1938L101.603 20.2085Z" fill="#FCFCFC"/>
<path d="M104.419 31.3151C101.143 31.3151 99.2559 29.4579 99.2559 26.2206V19.4744H102.335V26.2499C102.335 27.9237 103.066 28.7678 104.478 28.7678C106.028 28.7678 106.745 27.9677 106.745 26.2499V19.4744H109.824V26.1619C109.824 29.3992 107.805 31.3151 104.419 31.3151ZM100.719 20.9499V26.2206C100.681 26.7095 100.741 27.2011 100.895 27.6664C101.05 28.1316 101.295 28.5611 101.618 28.9293C101.099 28.1358 100.843 27.1981 100.887 26.2499V20.9499H100.719ZM108.207 20.9499V26.2499C108.23 27.0459 108.057 27.8352 107.703 28.5476C108.17 27.8433 108.401 27.0072 108.361 26.1619V20.9499H108.207Z" fill="white"/>
<path d="M113.195 30.4123V20.2085H114.936L118.885 25.3471C119.697 26.3943 120.431 27.501 121.079 28.6578C120.94 27.2651 120.879 25.8657 120.896 24.4662V20.1938H122.402V30.3976H120.881L116.961 25.259C116.121 24.1748 115.351 23.037 114.658 21.8529H114.599C114.694 23.1375 114.731 24.3634 114.731 26.0592V30.4196L113.195 30.4123Z" fill="#FCFCFC"/>
<path d="M123.192 31.1463H120.486L116.347 25.6774C116.003 25.2296 115.696 24.8112 115.411 24.4147C115.411 24.9139 115.411 25.4571 115.411 26.0517V31.1463H112.486V19.4744H115.316L119.492 24.9213C119.762 25.281 120.018 25.6553 120.26 25.971C120.26 25.4865 120.26 24.9947 120.26 24.5028V19.4964H123.229L123.192 31.1463ZM121.21 29.6781H121.73V29.223L121.071 29.4946L121.21 29.6781ZM113.897 29.6781V26.0517C113.897 25.1048 113.897 24.3046 113.897 23.5705V29.6781ZM117.122 24.3046C117.232 24.4661 117.356 24.6276 117.481 24.7891L119.002 26.8005C118.775 26.4775 118.534 26.1545 118.27 25.8242L117.122 24.3046ZM121.657 20.9499V24.4808C121.657 25.2149 121.657 25.949 121.7 26.6831V20.9646L121.657 20.9499ZM113.897 20.9499V21.2582L114.628 21.06L114.541 20.9499H113.897Z" fill="white"/>
<path d="M128.926 21.3242H125.167V20.201H134.308V21.3242H130.535V30.4048H128.926V21.3242Z" fill="#FCFCFC"/>
<path d="M131.266 31.1463H128.195V22.0584H124.436V19.467H135.04V22.0584H131.266V31.1463ZM129.657 29.6781H129.803V20.9499H129.657V29.6781Z" fill="white"/>
<path d="M137.643 27.1969L136.356 30.4048H134.711L138.901 20.201H140.825L145.037 30.4048H143.333L142.017 27.1969H137.643ZM141.688 26.1691L140.481 23.2328C140.235 22.6225 140.021 22.0002 139.837 21.3682C139.654 21.9775 139.457 22.5942 139.216 23.2181L138.009 26.1545L141.688 26.1691Z" fill="#FCFCFC"/>
<path d="M146.134 31.1463H142.821L141.505 27.9383H138.111L136.832 31.1463H133.592L138.389 19.4744H141.315L146.134 31.1463ZM143.823 29.6781H143.94L140.964 22.4547C141.022 22.6236 141.088 22.7851 141.154 22.9613L142.785 26.9106H142.69L143.823 29.6781ZM135.778 29.6781H135.837L136.941 26.9106L135.778 29.6781ZM139.033 25.4425H140.627L139.896 23.5779L139.033 25.4425Z" fill="white"/>
<path d="M149.783 20.2084V30.4121H148.189V20.2084H149.783Z" fill="#FCFCFC"/>
<path d="M150.515 31.1463H147.458V19.4744H150.515V31.1463ZM148.92 29.6781H149.052V20.9499H148.92V29.6781Z" fill="white"/>
<path d="M153.901 30.4123V20.2085H155.641L159.598 25.3471C160.408 26.3961 161.141 27.5026 161.792 28.6578H161.829C161.69 27.2651 161.629 25.8657 161.646 24.4662V20.1938H163.108V30.3976H161.499L157.579 25.259C156.737 24.1766 155.967 23.0387 155.276 21.8529H155.217C155.312 23.1375 155.349 24.3634 155.349 26.0592V30.4196L153.901 30.4123Z" fill="#FCFCFC"/>
<path d="M163.898 31.1463H161.192L157.053 25.6774C156.716 25.2296 156.402 24.8112 156.124 24.4147C156.124 24.9139 156.124 25.4571 156.124 26.0517V31.1463H153.155V19.4744H155.985L160.154 24.9213C160.432 25.281 160.688 25.6553 160.929 25.971C160.929 25.4865 160.929 24.9947 160.929 24.5028V19.4964H163.854L163.898 31.1463ZM161.924 29.6781H162.436V29.223L161.785 29.4946L161.924 29.6781ZM154.61 29.6781H154.654V26.0517C154.654 25.1048 154.654 24.312 154.61 23.5779V29.6781ZM157.828 24.2973L158.201 24.7891L159.722 26.8005C159.496 26.4775 159.254 26.1545 158.991 25.8242L157.828 24.2973ZM162.377 20.9499V24.4808C162.377 25.2149 162.377 25.949 162.377 26.6831V20.9646V20.9499ZM154.61 20.9499V21.2582L155.342 21.06L155.254 20.9499H154.61Z" fill="white"/>
<path d="M97.1423 45.0865C95.9123 45.4525 94.637 45.6428 93.354 45.6518C91.707 45.7463 90.0776 45.2694 88.7393 44.301C88.1833 43.8417 87.7388 43.2611 87.4398 42.6035C87.1407 41.9459 86.9949 41.2285 87.0134 40.5058C87.0134 37.4594 89.5584 35.2351 93.6978 35.2351C94.7434 35.2126 95.785 35.3716 96.7767 35.7049L96.3891 36.784C95.5143 36.4708 94.5897 36.3215 93.6612 36.3436C90.6554 36.3436 88.7028 37.8852 88.7028 40.4398C88.7028 42.9944 90.5823 44.558 93.4637 44.558C94.1811 44.5927 94.8989 44.5008 95.5846 44.2864V41.2473H93.0908V40.1828H97.157L97.1423 45.0865Z" fill="#FCFCFC"/>
<path d="M93.3541 46.3858C91.5469 46.4944 89.7575 45.976 88.286 44.9176C87.6409 44.3842 87.1252 43.7104 86.778 42.9473C86.4308 42.1842 86.2612 41.3517 86.2821 40.5131C86.2821 36.9161 89.2879 34.5083 93.6978 34.5083C94.836 34.4856 95.9694 34.6619 97.0473 35.0295L97.7055 35.2938L96.8279 37.7309L96.1404 37.474C95.3441 37.1956 94.5042 37.0638 93.6612 37.0849C91.0138 37.0849 89.4341 38.3402 89.4341 40.447C89.4341 42.5538 90.9407 43.8311 93.4638 43.8311C93.929 43.8369 94.3939 43.8025 94.8533 43.7284V41.9886H92.3595V39.456H97.8883V45.6443L97.3618 45.7985C96.0606 46.185 94.711 46.3828 93.3541 46.3858ZM96.2794 40.9168V44.5505H96.3745V40.9389L96.2794 40.9168ZM88.7028 37.8557C88.0098 38.7078 87.6742 39.7971 87.767 40.8931C87.8598 41.9891 88.3738 43.0059 89.2001 43.7284H89.2513C88.5418 42.9394 88.1052 41.9416 88.0063 40.8834C87.9075 39.8252 88.1518 38.7633 88.7028 37.8557Z" fill="white"/>
<path d="M111.462 40.337C111.462 43.8459 108.88 45.7105 105.728 45.7105C102.576 45.7105 100.185 43.6183 100.185 40.5352C100.185 37.2979 102.62 35.1764 105.911 35.1764C109.202 35.1764 111.462 37.3126 111.462 40.337ZM101.889 40.5058C101.858 41.0409 101.937 41.5767 102.121 42.0797C102.305 42.5827 102.591 43.0422 102.96 43.4293C103.33 43.8165 103.774 44.1231 104.267 44.3299C104.76 44.5367 105.289 44.6394 105.823 44.6314C108.346 44.6314 109.78 42.7154 109.78 40.3957C109.78 38.3696 108.493 36.2482 105.838 36.2482C103.183 36.2482 101.867 38.2595 101.867 40.5058H101.889Z" fill="#FCFCFC"/>
<path d="M105.728 46.4445C102.072 46.4445 99.4534 44.0147 99.4534 40.5351C99.4534 37.0556 102.108 34.4423 105.911 34.4423C109.714 34.4423 112.193 36.8647 112.193 40.3149C112.193 43.9853 109.597 46.4445 105.728 46.4445ZM105.838 36.9822C103.461 36.9822 102.62 38.8835 102.62 40.5058C102.591 40.9439 102.652 41.3833 102.8 41.7964C102.949 42.2094 103.181 42.5872 103.482 42.9059C103.783 43.2245 104.146 43.4771 104.549 43.6477C104.952 43.8183 105.386 43.9033 105.823 43.8972C108.017 43.8972 109.048 42.1428 109.048 40.3957C109.048 38.6486 108.047 36.9822 105.838 36.9822ZM102.02 37.4593C101.281 38.3094 100.887 39.4072 100.916 40.5351C100.898 41.151 101.014 41.7635 101.255 42.3301C101.496 42.8967 101.857 43.4039 102.313 43.8165C101.55 42.8842 101.139 41.7122 101.15 40.5058C101.132 39.4306 101.435 38.3746 102.02 37.474V37.4593ZM109.275 36.9895C110.086 37.9365 110.525 39.1473 110.511 40.3957C110.534 41.4862 110.223 42.5575 109.619 43.4641C110.382 42.6072 110.781 41.485 110.731 40.3369C110.756 39.7049 110.638 39.0752 110.386 38.4954C110.134 37.9156 109.754 37.4008 109.275 36.9895Z" fill="white"/>
<path d="M125.416 40.337C125.416 43.8459 122.834 45.7105 119.682 45.7105C116.53 45.7105 114.138 43.6183 114.138 40.5352C114.138 37.2979 116.574 35.1764 119.872 35.1764C123.17 35.1764 125.416 37.3126 125.416 40.337ZM115.842 40.5058C115.811 41.0409 115.89 41.5767 116.075 42.0797C116.259 42.5827 116.545 43.0422 116.914 43.4293C117.283 43.8165 117.728 44.1231 118.221 44.3299C118.713 44.5367 119.243 44.6394 119.777 44.6314C122.307 44.6314 123.733 42.7154 123.733 40.3957C123.733 38.3696 122.454 36.2482 119.792 36.2482C117.13 36.2482 115.842 38.2595 115.842 40.5058Z" fill="#FCFCFC"/>
<path d="M119.682 46.4445C115.989 46.4445 113.407 44.0147 113.407 40.5351C113.407 37.0556 116.062 34.4423 119.872 34.4423C123.529 34.4423 126.147 36.8647 126.147 40.3149C126.147 43.9853 123.551 46.4445 119.682 46.4445ZM119.792 36.9822C117.415 36.9822 116.574 38.8835 116.574 40.5058C116.544 40.9439 116.606 41.3833 116.754 41.7964C116.902 42.2094 117.134 42.5872 117.435 42.9059C117.736 43.2245 118.1 43.4771 118.503 43.6477C118.906 43.8183 119.34 43.9033 119.777 43.8972C121.971 43.8972 123.002 42.1428 123.002 40.3957C123.002 38.6486 122 36.9822 119.792 36.9822ZM115.974 37.4593C115.235 38.3094 114.841 39.4072 114.87 40.5351C114.852 41.151 114.967 41.7635 115.209 42.3301C115.45 42.8967 115.811 43.4039 116.267 43.8165C115.506 42.8831 115.097 41.7112 115.111 40.5058C115.09 39.4313 115.391 38.3753 115.974 37.474V37.4593ZM123.229 36.9895C124.043 37.9403 124.482 39.1569 124.465 40.4104C124.488 41.5008 124.177 42.5721 123.573 43.4788C124.335 42.6219 124.734 41.4997 124.684 40.3516C124.712 39.7171 124.595 39.0846 124.343 38.5021C124.091 37.9196 123.71 37.4023 123.229 36.9895Z" fill="white"/>
<path d="M128.604 43.9413C129.496 44.3733 130.473 44.599 131.464 44.602C133.087 44.602 134.045 43.8679 134.045 42.8622C134.045 41.8565 133.38 41.394 131.72 40.8361C129.701 40.2489 128.458 39.368 128.458 37.9438C128.458 36.3582 130.052 35.1763 132.451 35.1763C133.385 35.1464 134.315 35.3166 135.179 35.6755L134.776 36.7399C134.036 36.4176 133.236 36.2526 132.429 36.2554C130.747 36.2554 130.103 37.0923 130.103 37.7897C130.103 38.7366 130.835 39.2065 132.561 39.757C134.645 40.4177 135.705 41.2252 135.705 42.7521C135.705 44.279 134.301 45.6884 131.39 45.6884C130.305 45.7049 129.229 45.4818 128.238 45.0351L128.604 43.9413Z" fill="#FCFCFC"/>
<path d="M131.354 46.4298C130.147 46.4458 128.951 46.1952 127.851 45.6957L127.295 45.3874L128.195 42.9062L128.926 43.2806C129.715 43.6642 130.58 43.8649 131.456 43.8679C132.349 43.8679 133.307 43.6036 133.307 42.8622C133.307 42.5465 133.307 42.1281 131.486 41.5335C130.571 41.2692 127.719 40.4323 127.719 37.9438C127.719 35.881 129.657 34.4422 132.444 34.4422C133.484 34.4085 134.519 34.6014 135.479 35.0075L136.115 35.3085L135.12 37.7309L134.433 37.4226C133.788 37.1375 133.09 36.9924 132.385 36.9969C131.295 36.9969 130.791 37.4153 130.791 37.797C130.791 38.1787 130.937 38.487 132.736 39.0596C134.535 39.6322 136.393 40.5278 136.393 42.73C136.407 44.5873 134.842 46.4298 131.354 46.4298ZM134.177 41.2912C134.374 41.495 134.529 41.7364 134.632 42.0011C134.735 42.2659 134.784 42.5487 134.777 42.8328C134.775 43.1943 134.684 43.5498 134.513 43.8679C134.79 43.5542 134.941 43.1489 134.937 42.73C134.942 42.4494 134.874 42.1723 134.741 41.9255C134.608 41.6786 134.413 41.4704 134.177 41.3206V41.2912ZM129.504 36.9822C129.299 37.2493 129.188 37.5773 129.189 37.9145C129.187 38.1645 129.248 38.4111 129.367 38.6307C129.486 38.8504 129.659 39.036 129.869 39.1697C129.601 38.8785 129.423 38.5148 129.358 38.1235C129.293 37.7322 129.344 37.3303 129.504 36.9675V36.9822Z" fill="white"/>
<path d="M145.578 40.7627H140.781V44.4331H146.127V45.549H139.164V35.3452H145.834V36.4463H140.759V39.6763H145.556L145.578 40.7627Z" fill="#FCFCFC"/>
<path d="M146.858 46.2831H138.433V34.6112H146.566V37.1805H141.49V38.9423H146.288V41.5042H141.49V43.7065H146.836L146.858 46.2831ZM139.896 44.8149H140.028V36.0794H139.896V44.8149Z" fill="white"/>
</svg>
